# xmcd CD database file
#
# Track frame offsets:
#	150
#	21258
#	40944
#	60899
#	78695
#	98399
#	120554
#	142449
#	163211
#	183644
#	206512
#	228399
#	250143
#	271334
#	292764
#	313083
#	331774
#
# Disc length: 4759 seconds
#
# Revision: 0
# Processed by: cddbd v1.5.2PL0 Copyright (c) Steve Scherf et al.
# Submitted via: CDex 1.50
#
DISCID=ee129511
DTITLE=Eddy Herrera - Exitos 2004
DYEAR=2004
DGENRE=Merengue
TTITLE0=A Dormir Juntitos
TTITLE1=Si Tu Amor No Vuelve
TTITLE2=Culpables
TTITLE3=El Idiota
TTITLE4=La Ultima Vez
TTITLE5=Tu Eres Ajena
TTITLE6=Carolina
TTITLE7=Cadena De Amor
TTITLE8=Demasiado Nina
TTITLE9=Pegame Tu Vicio
TTITLE10=Pobre De Mi
TTITLE11=Seguiré Buscándola
TTITLE12=Amantes Prohibbidos
TTITLE13=La Bailadora
TTITLE14=Me Gusta
TTITLE15=Presumida
TTITLE16=Devorame Otra Vez
EXTD=YEAR: 2004
EXTT0=
EXTT1=
EXTT2=
EXTT3=
EXTT4=
EXTT5=
EXTT6=
EXTT7=
EXTT8=
EXTT9=
EXTT10=
EXTT11=
EXTT12=
EXTT13=
EXTT14=
EXTT15=
EXTT16=
PLAYORDER=
